HIERARCHY
ROOT Hips
{
	OFFSET 0.00000 0.00000 0.00000
	CHANNELS 6 Xposition Yposition Zposition Yrotation Zrotation Xrotation 
	JOINT Lumbar
	{
		OFFSET 0 0 0
		CHANNELS 3 Zrotation Xrotation Yrotation
		JOINT Neck
		{
			OFFSET 0.00 0.2701 0.00
			CHANNELS 3 Zrotation Xrotation Yrotation
			End Site
			{
				OFFSET 0.00 0.1379 0.00
			}
		}
		JOINT RightShoulder
		{
			OFFSET 0.0119 0.2289 0.1181
			CHANNELS 3 Zrotation Xrotation Yrotation
			JOINT RightElbow
			{
				OFFSET 0.00 -0.1475 0.00
				CHANNELS 2 Zrotation Yrotation
				JOINT RightWrist
				{
					OFFSET 0.00 -0.1605 0.00
					CHANNELS 2 Zrotation Xrotation
					End Site
					{
						OFFSET 0.0040 -0.1068 0.0006
					}
				}
			}
		}
		JOINT LeftShoulder
		{
			OFFSET 0.0119 0.2289 -0.1181
			CHANNELS 3 Zrotation Xrotation Yrotation
			JOINT LeftElbow
			{
				OFFSET 0.00 -0.1475 0.00
				CHANNELS 2 Zrotation Yrotation
				JOINT LeftWrist
				{
					OFFSET 0.00 -0.1605 0.00
					CHANNELS 2 Zrotation Xrotation
					End Site
					{
						OFFSET 0.0040 -0.1068 -0.0006
					}
				}
			}
		}
	}
	JOINT RightHip
	{
		OFFSET 0.0316 -0.0424 0.0458
		CHANNELS 3 Zrotation Xrotation Yrotation
		JOINT RightKnee
		{
			OFFSET 0.00 -0.2438 0.00
			CHANNELS 1 Zrotation
			JOINT RightAnkle
			{
				OFFSET 0.00 -0.2449 0.00
				CHANNELS 3 Zrotation Xrotation Yrotation
				End Site
				{
					OFFSET 0.1237 -0.0542 0.0051
				}
			}
		}
	}
	JOINT LeftHip
	{
		OFFSET 0.0316 -0.0424 -0.0458
		CHANNELS 3 Zrotation Xrotation Yrotation
		JOINT LeftKnee
		{
			OFFSET 0.00 -0.2438 0.00
			CHANNELS 1 Zrotation
			JOINT LeftAnkle
			{
				OFFSET 0.00 -0.2449 0.00
				CHANNELS 3 Zrotation Xrotation Yrotation
				End Site
				{
					OFFSET 0.1237 -0.0542 -0.0051
				}
			}
		}
	}
}
MOTION
Frames: 14
Frame Time: 0.02
-0.06385 0.58436 0.23187 129.2958 0 1.97545 3.12533 -4.6812 7.21153 -6.51639 12.53938 6.85073 71.26125 -59.4004 -15.3908 60.15613 66.92292 31.84008 -4.78068 -3.69827 -0.42923 20.6165 7.53714 -76.33207 -3.63403 0.33519 22.01124 -4.49304 7.52168 -36.65307 2.11509 -1.58095 -0.20905 -2.36915 -9.07931 -1.19002 -13.18726 7.36875 5.95153 9.97733
-0.0596 0.58525 0.23106 128.57402 0 1.36526 2.25469 -5.19883 6.71644 -4.57824 14.71964 5.81406 67.22353 -59.68578 -15.94657 63.78214 67.08634 30.95632 -4.81284 -5.3049 -1.88019 19.08576 7.24495 -76.39089 -3.52732 0.26982 22.11442 -3.74704 7.99448 -36.37987 2.1789 -1.05117 1.34086 -2.26448 -8.19627 -0.99173 -13.07869 7.39331 6.18561 10.4378
-0.05536 0.58593 0.23025 127.84441 0 0.81921 1.50178 -5.69669 6.53737 -3.21197 16.48123 4.41913 62.44748 -59.81472 -17.92923 67.88232 67.15802 29.90463 -4.87017 -6.12436 -2.88527 17.45761 6.92419 -76.45331 -3.44404 0.1608 22.22225 -3.07164 8.66742 -36.25466 2.5879 -0.58319 2.87644 -2.21236 -7.28432 -0.09282 -12.91474 7.47996 6.11113 10.191
-0.05115 0.58671 0.22942 127.12697 0 0.24856 0.71343 -6.19269 6.11352 -1.69005 18.41696 3.32707 58.03844 -60.01722 -19.28242 71.75084 67.24238 28.94255 -4.92038 -7.2479 -4.09298 15.92181 6.62376 -76.51799 -3.35246 0.0743 22.31239 -2.38065 9.21426 -36.07549 2.84448 -0.11035 4.34024 -2.13677 -6.39258 0.46476 -12.78417 7.53784 6.18722 10.28804
-0.04676 0.5875 0.22871 126.37499 0 -0.34502 -0.15653 -6.73813 6.09512 0.28169 20.44524 1.65116 53.48863 -60.21684 -20.53444 75.70667 67.44661 27.91617 -4.95344 -8.61327 -5.31803 14.16363 6.28872 -76.56653 -3.24882 -0.02507 22.46959 -1.62201 9.89722 -35.83953 3.08652 0.46728 6.15308 -2.05816 -5.46455 1.13187 -12.62116 7.598 6.23176 10.30149
-0.04275 0.58819 0.22773 125.69193 0 -0.87339 -0.82526 -7.17455 5.32316 1.17884 22.16791 1.09484 49.06297 -60.37993 -22.34338 79.58119 67.38097 26.99147 -5.02722 -9.28115 -6.39284 12.85345 6.02156 -76.64878 -3.17679 -0.10647 22.48657 -1.0215 10.3492 -35.7565 3.4374 0.80911 7.23017 -1.99947 -4.60822 1.73404 -12.51143 7.66837 6.26393 10.31572
-0.03975 0.58866 0.22607 125.20645 0 -1.24683 -0.98163 -7.31379 2.30072 -0.77536 23.19797 3.8226 45.12323 -60.51024 -25.34944 83.17247 66.58652 26.3318 -5.21418 -8.22656 -7.18043 12.79941 5.9342 -76.83129 -3.18512 -0.13949 22.1287 -0.82534 10.1111 -36.06801 4.02667 0.51877 6.25689 -1.97506 -3.95088 1.96515 -12.56583 7.7494 6.33899 10.51847
-0.03712 0.58902 0.22413 124.78916 0 -1.55459 -0.93602 -7.34359 -1.4708 -3.78804 23.92284 7.66906 41.34339 -60.60242 -28.86704 86.652 65.52607 25.79024 -5.43986 -6.49312 -7.82613 13.20364 5.91914 -77.04624 -3.22501 -0.15083 21.62675 -0.78814 9.63633 -36.52617 4.7091 -0.00796 4.54511 -1.97062 -3.36867 2.10874 -12.67481 7.83896 6.41023 10.74244
-0.03433 0.58941 0.22229 124.33734 0 -1.88596 -0.97315 -7.42365 -4.83835 -6.30274 24.75271 10.93641 37.51315 -60.6925 -32.14961 90.14437 64.59035 25.23368 -5.6433 -5.06129 -8.52296 13.40331 5.88096 -77.24097 -3.25151 -0.164 21.18234 -0.68761 9.27326 -36.91286 5.33395 -0.43036 3.18279 -1.96205 -2.75688 2.30327 -12.75635 7.92617 6.48051 10.94673
-0.03152 0.58986 0.22056 123.90136 0 -2.24195 -1.04552 -7.50108 -8.46791 -8.91068 25.71111 14.49452 33.55533 -60.86141 -35.49738 93.81754 63.63096 24.5123 -5.86745 -3.63141 -9.26262 13.58169 5.80087 -77.45853 -3.27463 -0.21182 20.77287 -0.55224 8.89785 -37.32831 6.03523 -0.84329 1.76097 -1.93367 -2.12472 2.47417 -12.84732 8.0092 6.5517 11.16937
-0.02884 0.59017 0.21853 123.44725 0 -2.53133 -0.99672 -7.55801 -11.72801 -11.56591 26.33409 17.7114 29.92056 -60.85637 -38.80601 97.07656 62.66417 24.15899 -6.05707 -2.04643 -9.88295 13.91697 5.8253 -77.63674 -3.31215 -0.18269 20.25473 -0.52593 8.49139 -37.71268 6.59493 -1.32934 0.28897 -1.95154 -1.55323 2.66581 -12.93207 8.10206 6.62395 11.36743
-0.02646 0.59011 0.21575 122.93757 0 -2.65734 -0.67418 -7.58664 -13.832 -14.11085 26.1106 19.76359 27.06189 -60.40219 -41.92816 99.25656 61.69642 24.84201 -6.14415 -0.20231 -10.22671 14.55397 6.12342 -77.69436 -3.38051 0.06196 19.48591 -0.76386 8.04002 -38.00966 6.73921 -1.97612 -1.15121 -2.08435 -1.1312 2.92003 -12.98886 8.22037 6.70209 11.50028
-0.02419 0.58992 0.21265 122.40461 0 -2.71794 -0.23499 -7.59808 -15.52949 -16.65983 25.56057 21.42491 24.54246 -59.76987 -44.97631 101.0138 60.73862 25.88363 -6.19466 1.77098 -10.45289 15.33687 6.52368 -77.7124 -3.46248 0.38198 18.61037 -1.10503 7.56828 -38.26319 6.73645 -2.6848 -2.61411 -2.26435 -0.76776 3.19788 -13.03744 8.34791 6.78258 11.60984
-0.02185 0.58978 0.20966 121.87579 0 -2.806 0.15753 -7.61663 -17.3855 -19.19326 25.15959 23.23479 21.9199 -59.20688 -48.02193 102.93832 59.80766 26.72926 -6.26022 3.68336 -10.72468 16.06665 6.87572 -77.75065 -3.53875 0.66217 17.77395 -1.39757 7.11544 -38.5133 6.8002 -3.35406 -4.06026 -2.4275 -0.37742 3.47146 -13.08816 8.47057 6.86213 11.72831
